<?xml version="1.0" encoding="utf-8"?>
<!-- Svg Vector Icons : http://www.onlinewebfonts.com/icon -->
<!DOCTYPE svg PUBLIC "-//W3C//DTD SVG 1.1//EN" "http://www.w3.org/Graphics/SVG/1.1/DTD/svg11.dtd">
<svg version="1.1" xmlns="http://www.w3.org/2000/svg" xmlns:xlink="http://www.w3.org/1999/xlink" x="0px" y="0px" viewBox="0 0 1000 1000" enable-background="new 0 0 1000 1000" xml:space="preserve">
<metadata> Svg Vector Icons : http://www.onlinewebfonts.com/icon </metadata>
<g><path d="M122.6,501.6c0,0-21.9-277,290.7-359.3c312.7-82.3,559.6,16.5,570.5,30.2c0,0,13.7,16.7,0,32.9C970.2,221.6,870.1,337,824.8,424.8c-45.3,87.8-130.3,401.8-448.5,347c0,0-91.9-15.1-107-37L112.6,887.4c0,0-164.6,27.4-76.8-91.4C123.5,677.1,460,309.6,663,300.4c0,0,22.4,2.7,18.3-4.6s-185.6-66.7-397.7,103.3c0,0-110.6,89.6-128.9,125.3C136.3,560.1,122.7,525.2,122.6,501.6z"/></g>
</svg>